# xmcd CD database file
#
# Track frame offsets:
#	150
#	16751
#	35512
#	52416
#	70988
#
# Disc length: 1194 seconds
#
# Revision: 0
# Processed by: cddbd v1.5.2PL0 Copyright (c) Steve Scherf et al.
# Submitted via: Mozilla Thunderbird 11.0
#
DISCID=4104a805
DTITLE=Lacerate (THA) - Soul of Revenge
DYEAR=2002
DGENRE=Brutal Death Metal
TTITLE0=Soul of Revenge
TTITLE1=Victor on the Blood
TTITLE2=Disillution by the Jeremiah
TTITLE3=Human's Sinner
TTITLE4=Stinking Rotten Corpses (Bonus Track)
EXTD=YEAR: 2002
EXTT0=
EXTT1=
EXTT2=
EXTT3=
EXTT4=
PLAYORDER=
